<svg xmlns="http://www.w3.org/2000/svg" viewBox="0 0 64 64" fill="none">
  <defs>
    <linearGradient id="vf-bg" x1="10" x2="56" y1="8" y2="58" gradientUnits="userSpaceOnUse">
      <stop stop-color="#46E7C7"/>
      <stop offset="1" stop-color="#7A5AF8"/>
    </linearGradient>
    <linearGradient id="vf-badge" x1="14" x2="50" y1="14" y2="50" gradientUnits="userSpaceOnUse">
      <stop stop-color="#FFCF70"/>
      <stop offset="1" stop-color="#F58B4C"/>
    </linearGradient>
  </defs>
  <rect width="64" height="64" rx="18" fill="#0A1625"/>
  <rect x="8" y="8" width="48" height="48" rx="16" fill="url(#vf-bg)" opacity=".22"/>
  <rect x="14" y="14" width="30" height="30" rx="10" fill="url(#vf-bg)"/>
  <path d="M29 22a5 5 0 0 0-5 5v4a5 5 0 1 0 10 0v-4a5 5 0 0 0-5-5Zm-8 10a1.5 1.5 0 0 1 3 0 5 5 0 0 0 10 0 1.5 1.5 0 0 1 3 0 8 8 0 0 1-6.5 7.86V43a1.5 1.5 0 0 1-3 0v-3.14A8 8 0 0 1 21 32Z" fill="#F8FAFF"/>
  <rect x="39" y="10" width="15" height="15" rx="5" fill="url(#vf-badge)"/>
  <path d="m46.5 13.7.98 2 2.2.32-1.6 1.56.38 2.2-1.96-1.03-1.96 1.03.37-2.2-1.59-1.56 2.2-.32.98-2Z" fill="#0A1625"/>
  <rect x="8" y="41" width="15" height="15" rx="5" fill="#FF4FB5"/>
  <path d="M12.7 51v-5.4h1.1l2 2.52v-2.52h1.32V51H16l-2.02-2.64V51H12.7Zm7.34 0v-5.4h1.28V51h-1.28Z" fill="#F8FAFF"/>
</svg>
