<svg xmlns="http://www.w3.org/2000/svg" viewBox="0 0 256 256" fill="none">
  <defs>
    <radialGradient id="vfOrb" cx="0" cy="0" r="1" gradientTransform="translate(94 72) rotate(43) scale(188)" gradientUnits="userSpaceOnUse">
      <stop stop-color="#5A4AC0" />
      <stop offset="0.58" stop-color="#43358D" />
      <stop offset="1" stop-color="#2A235C" />
    </radialGradient>
    <linearGradient id="vfCore" x1="96" y1="88" x2="162" y2="162" gradientUnits="userSpaceOnUse">
      <stop stop-color="#6E5CFB" />
      <stop offset="1" stop-color="#A020F0" />
    </linearGradient>
    <linearGradient id="vfPulse" x1="34" y1="170" x2="90" y2="224" gradientUnits="userSpaceOnUse">
      <stop stop-color="#FF4AA6" />
      <stop offset="1" stop-color="#DB1581" />
    </linearGradient>
    <filter id="vfGlow" x="0" y="0" width="256" height="256" color-interpolation-filters="sRGB">
      <feDropShadow dx="0" dy="16" stdDeviation="14" flood-color="#26184f" flood-opacity="0.5" />
    </filter>
  </defs>

  <g filter="url(#vfGlow)">
    <circle cx="128" cy="128" r="94" fill="url(#vfOrb)" />
  </g>

  <rect x="78" y="78" width="100" height="100" rx="30" fill="#FFFFFF" fill-opacity="0.08" stroke="#FFFFFF" stroke-opacity="0.28" />
  <rect x="98" y="98" width="60" height="60" rx="14" fill="url(#vfCore)" />

  <path d="M128 148.5C136.008 148.5 142.5 142.008 142.5 134V122.5H136.5V134C136.5 138.694 132.694 142.5 128 142.5C123.306 142.5 119.5 138.694 119.5 134V122.5H113.5V134C113.5 142.008 119.992 148.5 128 148.5Z" fill="#F8FAFF"/>
  <rect x="120.5" y="108" width="15" height="29" rx="7.5" stroke="#F8FAFF" stroke-width="5"/>
  <path d="M128 148.5V157" stroke="#F8FAFF" stroke-width="5" stroke-linecap="round"/>

  <rect x="164" y="62" width="40" height="40" rx="12" fill="#FFBE0B" />
  <path d="M182 70.5L183.9 75.8L189.5 77.7L183.9 79.6L182 84.9L180.1 79.6L174.5 77.7L180.1 75.8L182 70.5Z" fill="white"/>
  <path d="M192.3 69.5L193.2 72L195.8 72.9L193.2 73.8L192.3 76.3L191.4 73.8L188.8 72.9L191.4 72L192.3 69.5Z" fill="white"/>

  <rect x="34" y="170" width="52" height="42" rx="13" fill="url(#vfPulse)" />
  <path d="M43 192.5H50L53 183L58 200L62 189L68 189" stroke="white" stroke-width="3.5" stroke-linecap="round" stroke-linejoin="round"/>
</svg>
